<?xml version="1.0" standalone="no"?>
<!DOCTYPE svg PUBLIC "-//W3C//DTD SVG 20010904//EN"
 "http://www.w3.org/TR/2001/REC-SVG-20010904/DTD/svg10.dtd">
<svg version="1.0" xmlns="http://www.w3.org/2000/svg"
 width="536.000000pt" height="691.000000pt" viewBox="0 0 536.000000 691.000000"
 preserveAspectRatio="xMidYMid meet">

<g transform="translate(0.000000,691.000000) scale(0.100000,-0.100000)"
fill="#000000" stroke="none">
<path d="M2635 6470 c-16 -5 -63 -17 -103 -26 -41 -10 -68 -20 -61 -25 8 -4 0
-13 -22 -24 -55 -29 -131 -115 -131 -150 0 -21 -7 -23 -77 -30 -42 -3 -94 -9
-116 -11 -22 -3 -54 -7 -71 -8 -18 -2 -51 -12 -75 -23 -24 -11 -73 -31 -109
-44 -36 -13 -69 -27 -75 -31 -5 -5 -26 -22 -45 -38 -19 -16 -38 -30 -42 -30
-3 0 -32 -28 -65 -61 -32 -34 -73 -76 -92 -93 -45 -42 -106 -133 -132 -198
-43 -108 -72 -224 -73 -288 -2 -152 31 -479 54 -535 14 -34 31 -138 29 -180
-2 -53 16 -129 43 -185 12 -25 21 -49 20 -53 -2 -5 11 -24 27 -42 16 -18 32
-48 36 -67 4 -18 11 -46 15 -63 5 -16 19 -74 31 -128 15 -72 28 -106 47 -125
l25 -27 -6 50 c-15 118 -18 251 -9 402 9 156 11 164 46 239 20 42 50 96 67
120 31 45 45 104 53 210 6 99 58 181 153 248 54 37 69 44 58 26 -4 -6 15 3 42
18 26 16 59 35 73 43 14 8 31 22 38 32 7 9 22 17 34 17 11 0 33 11 50 25 16
13 51 31 79 39 48 15 69 14 179 -9 8 -2 20 -4 27 -4 6 -1 10 -9 9 -18 -2 -10
4 -23 13 -30 14 -11 14 -12 1 -13 -27 -1 10 -17 58 -25 23 -4 42 -12 42 -18 0
-7 5 -5 10 3 7 11 10 7 11 -20 1 -19 1 -41 0 -48 -1 -8 2 -19 8 -26 6 -7 8
-40 5 -76 -3 -36 -5 -85 -4 -108 1 -24 -3 -41 -8 -38 -15 9 -7 -421 8 -439 7
-9 15 -13 18 -10 3 2 0 11 -6 18 -9 10 -8 14 3 14 8 0 12 -4 9 -8 -8 -14 17
-21 31 -9 8 7 15 9 15 4 0 -4 7 1 15 12 13 17 14 17 15 2 0 -30 15 -20 16 12
2 29 23 60 43 60 6 0 11 -4 11 -10 0 -5 5 -10 10 -10 6 0 10 12 10 26 0 14 4
23 10 19 6 -3 10 3 10 14 0 26 8 27 27 4 13 -16 13 -16 3 5 -7 13 -14 36 -16
50 -4 24 -2 23 19 -10 13 -21 27 -35 32 -30 4 4 2 -4 -5 -17 -17 -33 5 -105
29 -95 33 15 85 4 108 -23 23 -25 54 -35 73 -23 13 8 13 10 -1 10 -9 0 -19 7
-23 15 -5 15 15 21 28 8 13 -13 35 -11 29 3 -7 19 26 30 48 16 10 -7 35 -10
56 -7 30 5 35 3 23 -5 -12 -9 -10 -11 12 -7 16 2 25 0 22 -5 -4 -6 6 -9 22 -7
36 2 67 -8 119 -40 17 -10 40 -17 53 -14 12 2 22 -1 22 -6 0 -9 27 11 72 53
17 15 22 16 29 5 7 -11 11 -11 21 3 14 19 29 14 46 -17 12 -23 32 -249 35
-400 l2 -100 30 0 c24 0 31 5 33 25 2 14 8 30 13 35 4 6 9 29 10 50 3 64 28
177 46 205 8 14 25 33 37 42 l21 18 -23 0 c-13 0 -20 4 -17 10 16 25 55 148
55 172 0 15 5 30 10 33 6 3 10 21 10 39 0 33 19 91 42 131 14 24 25 95 39 270
19 217 15 269 -30 406 -22 66 -52 143 -66 171 -64 127 -264 372 -365 447 -37
28 -71 51 -74 51 -3 0 -30 18 -61 39 -31 22 -91 54 -133 72 -42 17 -103 44
-134 60 -32 16 -78 36 -102 44 -120 41 -448 82 -511 65z m-185 -910 c0 -5 -2
-10 -4 -10 -3 0 -8 5 -11 10 -3 6 -1 10 4 10 6 0 11 -4 11 -10z m-32 -67 c-10
-2 -26 -2 -35 0 -10 3 -2 5 17 5 19 0 27 -2 18 -5z m362 -627 c0 -3 -4 -8 -10
-11 -5 -3 -10 -1 -10 4 0 6 5 11 10 11 6 0 10 -2 10 -4z"/>
<path d="M2059 4742 c11 -8 5 -10 -20 -10 -39 1 -124 -44 -140 -73 -9 -18 -6
-21 17 -18 4 0 11 -5 15 -13 7 -10 9 -10 9 0 0 6 7 12 15 12 8 0 15 3 15 8 0
4 53 8 118 9 64 1 141 3 170 5 28 2 52 1 52 -3 0 -3 8 -5 18 -4 21 3 72 23 72
29 0 2 -16 14 -36 26 -30 19 -52 23 -157 25 -67 2 -131 6 -142 10 -15 5 -16 4
-6 -3z"/>
<path d="M3000 4579 c0 -5 5 -7 10 -4 6 3 10 8 10 11 0 2 -4 4 -10 4 -5 0 -10
-5 -10 -11z"/>
<path d="M2160 4501 c-19 -4 -45 -12 -56 -19 -12 -6 -25 -8 -29 -4 -5 4 -5 2
-2 -5 4 -6 -10 -25 -34 -44 -40 -32 -41 -33 -20 -43 18 -8 28 -4 59 26 20 20
51 43 67 51 l30 15 0 -54 c0 -68 21 -92 84 -96 37 -2 47 2 68 26 20 24 24 37
21 80 l-4 51 -45 12 c-50 13 -88 14 -139 4z m100 -69 c0 -13 -12 -22 -22 -16
-10 6 -1 24 13 24 5 0 9 -4 9 -8z m70 -12 c0 -5 -4 -10 -10 -10 -5 0 -10 5
-10 10 0 6 5 10 10 10 6 0 10 -4 10 -10z"/>
<path d="M3155 4493 c-11 -2 -32 -9 -46 -14 -24 -9 -25 -13 -19 -57 10 -68 17
-79 58 -88 80 -16 118 10 116 81 -1 42 1 45 20 39 12 -4 40 -24 64 -46 27 -24
49 -37 58 -34 9 3 21 6 27 6 6 0 -6 15 -28 33 -22 17 -48 40 -58 50 -27 27
-132 44 -192 30z m85 -69 c0 -8 -7 -14 -15 -14 -8 0 -15 9 -15 20 0 13 5 18
15 14 8 -4 15 -12 15 -20z m-73 -10 c-9 -9 -28 6 -21 18 4 6 10 6 17 -1 6 -6
8 -13 4 -17z m-3 -43 c4 -5 -3 -7 -14 -4 -23 6 -26 13 -6 13 8 0 17 -4 20 -9z"/>
<path d="M3011 4389 c-7 -12 -10 -23 -8 -26 3 -3 11 5 17 17 6 12 10 23 8 25
-2 2 -10 -5 -17 -16z"/>
<path d="M4017 4374 c-3 -3 4 -22 16 -42 l22 -37 3 28 c2 16 1 35 -2 43 -5 14
-28 19 -39 8z"/>
<path d="M1331 4314 c0 -11 3 -14 6 -6 3 7 2 16 -1 19 -3 4 -6 -2 -5 -13z"/>
<path d="M4040 4230 c0 -16 4 -30 9 -30 5 0 11 14 13 30 3 20 0 30 -9 30 -8 0
-13 -12 -13 -30z"/>
<path d="M2552 3744 c-25 -17 -29 -42 -8 -50 16 -6 86 21 86 34 0 7 -42 32
-53 32 -2 0 -13 -7 -25 -16z"/>
<path d="M2786 3735 c-21 -16 -21 -17 11 -34 49 -25 90 0 54 33 -22 20 -40 20
-65 1z"/>
<path d="M2290 3315 c0 -18 56 -33 104 -28 29 4 51 1 61 -7 8 -7 33 -13 55
-14 22 0 40 -5 40 -10 0 -4 6 -4 13 2 8 7 80 10 193 10 124 0 188 3 203 12 14
7 40 10 65 6 23 -3 60 0 84 7 37 11 41 15 28 26 -10 9 -20 9 -34 2 -13 -7 -31
-7 -57 0 -28 8 -59 7 -114 -2 -101 -17 -314 -21 -376 -8 -68 16 -265 18 -265
4z"/>
<path d="M3650 2585 c1 -16 25 -45 98 -118 66 -66 67 -68 65 -118 0 -27 -4
-62 -7 -77 -5 -22 -2 -20 14 11 30 55 29 99 -4 137 -30 36 -29 47 2 31 31 -16
32 -14 11 27 -11 20 -18 45 -15 55 5 19 -5 22 -21 6 -8 -8 -15 -6 -24 9 -9 15
-17 18 -25 11 -9 -7 -17 -3 -28 12 -12 17 -18 20 -29 11 -10 -9 -16 -9 -25 0
-7 7 -12 8 -12 3z"/>
<path d="M1840 2559 c0 -7 -10 -9 -25 -5 -14 4 -25 2 -25 -4 0 -5 -7 -10 -15
-10 -19 0 -125 -106 -125 -125 0 -7 -2 -22 -5 -32 -6 -17 -5 -17 7 1 49 72
120 126 166 126 10 0 23 5 30 12 15 15 16 48 2 48 -5 0 -10 -5 -10 -11z"/>
<path d="M1752 2464 c-29 -20 -52 -65 -52 -101 l0 -28 19 30 c10 17 35 46 55
64 20 19 36 39 36 43 0 13 -34 9 -58 -8z"/>
<path d="M1705 2200 c6 -36 35 -79 35 -50 -1 8 -10 31 -21 50 l-20 35 6 -35z"/>
</g>
</svg>
